<svg width="16" height="16" viewBox="0 0 16 16" fill="none" xmlns="http://www.w3.org/2000/svg">
<path opacity="0.965" fill-rule="evenodd" clip-rule="evenodd" d="M5.20312 3.29688C7.50521 3.29166 9.8073 3.29688 12.1094 3.3125C12.4166 3.36979 12.599 3.5521 12.6562 3.85938C12.6771 6.16147 12.6771 8.46354 12.6562 10.7656C12.5125 11.2516 12.1948 11.4235 11.7031 11.2813C11.4788 11.1818 11.3486 11.0099 11.3125 10.7656C11.3021 9.06772 11.2916 7.36979 11.2812 5.67188C9.00521 7.94791 6.72915 10.224 4.45312 12.5C4.11259 12.7393 3.78446 12.7237 3.46874 12.4531C3.23959 12.1406 3.23959 11.8281 3.46874 11.5156C5.74477 9.2396 8.02084 6.96354 10.2969 4.6875C8.55587 4.687 6.8163 4.66616 5.07812 4.625C4.65605 4.41113 4.53624 4.083 4.71874 3.64063C4.8358 3.46 4.99727 3.34544 5.20312 3.29688Z" fill="#8C8F92"/>
</svg>
