<svg width="10" height="14" viewBox="0 0 10 14" fill="none" xmlns="http://www.w3.org/2000/svg">
<path opacity="0.974" fill-rule="evenodd" clip-rule="evenodd" d="M4.15931 -0.0136719C4.48743 -0.0136719 4.81556 -0.0136719 5.14368 -0.0136719C6.92551 0.250696 8.19699 1.19861 8.95813 2.83008C9.58967 4.54349 9.36181 6.12943 8.27454 7.58789C7.46902 8.53997 6.44363 9.09595 5.19837 9.25586C5.19837 9.76628 5.19837 10.2767 5.19837 10.7871C5.5995 10.7825 6.00055 10.7871 6.40149 10.8008C6.68415 10.8738 6.8391 11.0561 6.86634 11.3477C6.8563 11.5947 6.73782 11.7679 6.51087 11.8672C6.07531 11.9069 5.63781 11.9206 5.19837 11.9082C5.20294 12.4734 5.19837 13.0385 5.1847 13.6035C5.12954 13.7999 5.0065 13.9275 4.81556 13.9863C4.70618 13.9863 4.59681 13.9863 4.48743 13.9863C4.29649 13.9275 4.17344 13.7999 4.11829 13.6035C4.10462 13.0385 4.10005 12.4734 4.10462 11.9082C3.66518 11.9206 3.22768 11.9069 2.79212 11.8672C2.56517 11.7679 2.44669 11.5947 2.43665 11.3477C2.46388 11.0561 2.61884 10.8738 2.90149 10.8008C3.30244 10.7871 3.70349 10.7825 4.10462 10.7871C4.10462 10.2767 4.10462 9.76628 4.10462 9.25586C2.17013 8.96115 0.871303 7.89474 0.208135 6.05664C-0.326988 4.0626 0.169755 2.38095 1.69837 1.01172C2.42191 0.437847 3.24222 0.0960507 4.15931 -0.0136719ZM4.24134 1.10742C5.76042 1.01696 6.92253 1.6094 7.72767 2.88477C8.32923 4.05144 8.32923 5.21809 7.72767 6.38477C6.92997 7.65639 5.77696 8.24428 4.26868 8.14844C2.78643 7.92463 1.78838 7.10886 1.27454 5.70117C0.879561 4.19508 1.25783 2.92359 2.40931 1.88672C2.95101 1.46082 3.56168 1.20105 4.24134 1.10742Z" fill="#45556C"/>
</svg>
