<svg width="32" height="32" viewBox="0 0 32 32" fill="none" xmlns="http://www.w3.org/2000/svg">
<rect width="32" height="32" rx="16" fill="white"/>
<path opacity="0.997" fill-rule="evenodd" clip-rule="evenodd" d="M22.586 7.02356C23.225 7.73751 23.7484 8.53439 24.1563 9.41418C24.8659 11.0699 24.7252 12.6481 23.7344 14.1486C22.8586 15.337 21.8508 16.4073 20.711 17.3595C18.8885 18.9118 16.9198 20.2556 14.8047 21.3907C14.5086 21.4852 14.2039 21.5242 13.8906 21.5079C12.5694 21.474 11.3115 21.1771 10.1172 20.6173C8.61947 19.2688 7.37729 17.7219 6.39064 15.9767C5.30612 13.6342 5.39987 11.3374 6.67189 9.08606C8.02579 7.22621 9.84612 6.48403 12.1328 6.85949C13.6214 7.20122 14.7386 8.03715 15.4844 9.36731C15.662 9.70682 15.8261 10.0506 15.9766 10.3986C17.2161 7.39595 19.4192 6.27095 22.586 7.02356Z" fill="#FB4F4F"/>
<path opacity="0.998" fill-rule="evenodd" clip-rule="evenodd" d="M22.5859 7.02344C24.1377 7.58297 25.2236 8.62984 25.8438 10.1641C26.7113 12.8027 26.3207 15.2402 24.6719 17.4766C22.3436 20.3991 19.6327 22.8913 16.5391 24.9531C16.3569 25.052 16.1694 25.138 15.9766 25.2109C15.6981 25.1029 15.4325 24.9701 15.1797 24.8125C13.3765 23.5585 11.689 22.1601 10.1172 20.6172C11.3115 21.177 12.5694 21.4739 13.8906 21.5078C14.2039 21.5241 14.5086 21.4851 14.8047 21.3906C16.9198 20.2555 18.8885 18.9117 20.7109 17.3594C21.8508 16.4072 22.8586 15.3369 23.7344 14.1484C24.7252 12.648 24.8658 11.0698 24.1562 9.41406C23.7483 8.53427 23.2249 7.7374 22.5859 7.02344Z" fill="#D54342"/>
<path fill-rule="evenodd" clip-rule="evenodd" d="M9.41408 8.19541C9.69074 8.17019 9.95633 8.20925 10.211 8.3126C10.339 8.43569 10.4249 8.58412 10.4688 8.75791C10.4968 9.31755 10.3562 9.83317 10.0469 10.3048C9.69754 10.8886 9.23657 11.3651 8.66408 11.7345C7.41605 12.4127 6.87699 12.0611 7.0469 10.6798C7.49647 9.51944 8.28554 8.69135 9.41408 8.19541Z" fill="#FD8282"/>
</svg>
