<svg width="14" height="14" viewBox="0 0 14 14" fill="none" xmlns="http://www.w3.org/2000/svg">
<path opacity="0.979" fill-rule="evenodd" clip-rule="evenodd" d="M8.35761 0.00170937C9.75217 -0.00284883 11.1467 0.00170937 12.5412 0.0153812C12.8065 0.0728031 12.9751 0.23231 13.0471 0.493897C13.0739 1.94435 13.0648 3.39356 13.0197 4.84155C12.8414 5.19732 12.5542 5.33861 12.1584 5.26538C11.8865 5.18494 11.7179 5.0072 11.6525 4.73218C11.6434 3.96655 11.6343 3.20093 11.6252 2.4353C10.7821 3.27839 9.93898 4.12151 9.09589 4.9646C10.1665 6.47972 10.3898 8.1158 9.76581 9.8728C8.85904 11.8992 7.29134 12.9656 5.06269 13.072C3.15595 13.0124 1.69761 12.1829 0.687686 10.5837C-0.201017 8.92947 -0.228361 7.2615 0.605655 5.57983C1.59401 3.90008 3.07058 3.02508 5.03534 2.95483C6.16631 2.97028 7.18713 3.30751 8.09784 3.96655C8.94093 3.12346 9.78405 2.28035 10.6271 1.43726C9.87062 1.42814 9.11413 1.41903 8.35761 1.40991C7.92555 1.27093 7.74781 0.974709 7.8244 0.521241C7.90974 0.248998 8.08748 0.0758219 8.35761 0.00170937ZM4.91229 4.34937C6.50873 4.36099 7.67084 5.07192 8.39862 6.48218C8.97795 7.90952 8.78655 9.22202 7.8244 10.4197C6.7761 11.517 5.51372 11.877 4.03729 11.4998C2.5405 10.9809 1.67918 9.93725 1.45331 8.3689C1.3805 6.63161 2.12334 5.38747 3.68183 4.63648C4.08249 4.48384 4.49265 4.38814 4.91229 4.34937Z" fill="#49596F"/>
</svg>
